/* XPM */
static char *accents[] = {
/* columns rows colors chars-per-pixel */
"64 15 10 1",
"  c black",
". c #0E0E0E",
"X c #1E1E1E",
"o c gray18",
"O c #7EC87E",
"+ c #376BAF",
"@ c #FCBF85",
"# c #9ED59E",
"$ c #FEFE98",
"% c #BDADD3",
/* pixels */
".                                                              X",
" +++++++++++ $$$$$$$$$$$$ @@@@@@@@@@@ %%%%%%%%%%%% OOOOOOOOOOO# ",
" +++++++++++ $$$$$$$$$$$$ @@@@@@@@@@@ %%%%%%%%%%%% OOOOOOOOOOO# ",
" +++++++++++ $$$$$$$$$$$$ @@@@@@@@@@@ %%%%%%%%%%%% OOOOOOOOOOO# ",
" +++++++++++ $$$$$$$$$$$$ @@@@@@@@@@@ %%%%%%%%%%%% OOOOOOOOOOO# ",
" +++++++++++ $$$$$$$$$$$$ @@@@@@@@@@@ %%%%%%%%%%%% OOOOOOOOOOO# ",
" +++++++++++ $$$$$$$$$$$$ @@@@@@@@@@@ %%%%%%%%%%%% OOOOOOOOOOO# ",
" +++++++++++ $$$$$$$$$$$$ @@@@@@@@@@@ %%%%%%%%%%%% OOOOOOOOOOO# ",
" +++++++++++ $$$$$$$$$$$$ @@@@@@@@@@@ %%%%%%%%%%%% OOOOOOOOOOO# ",
" +++++++++++ $$$$$$$$$$$$ @@@@@@@@@@@ %%%%%%%%%%%% OOOOOOOOOOO# ",
" +++++++++++ $$$$$$$$$$$$ @@@@@@@@@@@ %%%%%%%%%%%% OOOOOOOOOOO# ",
" +++++++++++ $$$$$$$$$$$$ @@@@@@@@@@@ %%%%%%%%%%%% OOOOOOOOOOO# ",
" +++++++++++ $$$$$$$$$$$$ @@@@@@@@@@@ %%%%%%%%%%%% OOOOOOOOOOO# ",
" +++++++++++ $$$$$$$$$$$$ @@@@@@@@@@@ %%%%%%%%%%%% OOOOOOOOOOO# ",
".                                                              o"
};
